<?xml version="1.0" standalone="no"?>
<!DOCTYPE svg PUBLIC "-//W3C//DTD SVG 20010904//EN"
 "http://www.w3.org/TR/2001/REC-SVG-20010904/DTD/svg10.dtd">
<svg version="1.0" xmlns="http://www.w3.org/2000/svg"
 width="508.000000pt" height="506.000000pt" viewBox="0 0 508.000000 506.000000"
 preserveAspectRatio="xMidYMid meet">

<g transform="translate(0.000000,506.000000) scale(0.100000,-0.100000)"
fill="#000000" stroke="none">
<path d="M260 4850 c-26 -26 -35 -66 -22 -95 10 -22 98 -144 659 -912 120
-164 232 -327 250 -363 72 -144 94 -347 54 -496 -10 -38 -84 -242 -166 -454
-81 -212 -265 -695 -410 -1075 -145 -379 -302 -791 -349 -914 -102 -265 -106
-295 -45 -326 24 -13 115 -15 583 -15 l555 0 26 23 c23 20 30 47 75 282 27
143 130 690 230 1215 99 525 194 1023 210 1105 47 245 49 460 6 666 -24 110
-473 1341 -497 1362 -20 16 -62 17 -580 17 -543 0 -560 -1 -579 -20z"/>
<path d="M1963 4848 c-11 -13 -23 -31 -26 -41 -4 -10 65 -303 152 -655 88
-350 165 -680 172 -732 18 -129 16 -389 -4 -530 -9 -63 -79 -576 -156 -1140
-77 -564 -154 -1124 -171 -1245 -16 -121 -30 -226 -30 -233 0 -8 13 -27 29
-43 l29 -29 562 0 c408 0 567 3 583 12 54 28 56 49 27 258 -12 80 -93 672
-182 1315 -180 1309 -187 1388 -153 1629 9 71 79 372 171 738 85 340 154 630
154 644 0 14 -11 36 -25 49 l-24 25 -544 0 -544 0 -20 -22z"/>
<path d="M3633 4848 c-13 -14 -93 -221 -192 -495 -94 -259 -198 -547 -231
-640 -85 -232 -104 -348 -97 -583 4 -140 11 -206 35 -330 17 -85 132 -689 256
-1342 124 -652 231 -1197 237 -1211 6 -14 22 -30 36 -36 16 -8 193 -11 577
-11 539 0 554 1 579 20 48 38 45 59 -47 301 -163 431 -237 625 -261 684 -13
33 -168 440 -345 904 -222 583 -326 869 -337 925 -25 132 -6 292 51 419 31 70
52 100 519 740 444 609 437 598 382 652 l-24 25 -559 0 -559 0 -20 -22z"/>
</g>
</svg>
